<svg width="1250" height="400" viewBox="0 0 1250 400" fill="none" xmlns="http://www.w3.org/2000/svg">
<path d="M361.31 263.193C361.31 276.316 363.18 284.889 364.801 291.59H343.106C341.235 285.699 339.895 276.846 339.895 263.972V247.639C339.895 222.171 326.211 211.729 301.585 211.729H251.43V291.59H229.174V113.383H312.246C348.966 113.383 366.921 131.618 366.921 160.296C366.921 184.142 352.177 200.757 332.352 205.308C349.247 210.139 361.31 218.181 361.31 244.428V263.193V263.193ZM343.605 162.135C343.605 141.5 333.162 131.306 309.846 131.306H251.43V195.083H309.596C334.502 195.115 343.605 182.521 343.605 162.135Z" fill="#323B90"/>
<path d="M498.777 250.318H518.353C515.672 270.673 500.117 295.891 455.635 295.891C409.533 295.891 389.178 264.813 389.178 224.321C389.178 184.391 411.154 153.312 455.635 153.312C495.847 153.312 518.602 180.93 518.602 220.051C518.602 223.542 518.602 226.223 518.072 229.433H410.343C411.964 266.153 429.638 279.557 456.446 279.557C482.692 279.526 494.756 267.213 498.777 250.318ZM410.873 213.349H497.717C496.626 182.52 480.822 169.646 455.916 169.646C430.449 169.646 413.834 181.71 410.873 213.349Z" fill="#323B90"/>
<path d="M669.223 104V291.59H647.777V265.874C638.674 284.888 621.78 295.892 597.123 295.892C555.041 295.892 535.746 265.593 535.746 224.603C535.746 183.332 555.041 153.313 597.123 153.313C621.78 153.313 638.674 164.036 647.777 183.051V104H669.223ZM647.777 224.603C647.777 186.823 629.822 170.738 601.425 170.738C570.876 170.738 557.473 188.413 557.473 224.603C557.473 260.512 570.876 278.467 601.425 278.467C629.822 278.467 647.777 262.383 647.777 224.603Z" fill="#323B90"/>
<path d="M814.762 157.584V291.59H793.316V257.551C785.273 281.397 769.469 295.861 743.472 295.861C709.714 295.861 694.439 278.187 694.439 243.056V157.584H715.885V240.656C715.885 270.394 729.009 278.187 749.644 278.187C777.512 278.187 793.316 253.249 793.316 208.768V157.584H814.762Z" fill="#323B90"/>
<path d="M906.157 153.312C946.369 153.312 966.443 175.569 968.594 206.647H948.488C945.278 184.671 931.874 170.737 906.937 170.737C878.539 170.737 860.834 186.011 860.834 224.602C860.834 263.473 877.978 278.466 906.126 278.466C933.183 278.466 947.117 263.192 949.797 240.406H970.153C968.532 271.234 946.836 295.891 906.095 295.891C862.143 295.891 839.107 265.592 839.107 224.602C839.139 183.58 862.735 153.312 906.157 153.312Z" fill="#323B90"/>
<path d="M1006.93 260.231V174.478H981.467V162.415L1008.8 155.713L1016.85 127.846H1028.38V157.583H1072.61V174.478H1028.38V274.165H1070.99V291.59H1039.35C1013.64 291.59 1006.93 281.677 1006.93 260.231Z" fill="#323B90"/>
<path d="M118.142 173.887V232.52H59.5703V291.59H118.142H177.212V173.887H118.142Z" fill="#323B90"/>
<path d="M118.14 114.379H59.07H0V173.449V232.519C0 265.156 0 291.589 0 291.589C32.6366 291.589 59.07 265.156 59.07 232.519V173.449H118.14C150.777 173.449 177.21 147.016 177.21 114.379H118.14V114.379Z" fill="#323B90"/>
</svg>
